<?xml version="1.0" encoding="UTF-8" standalone="no"?>
<svg width="33px" height="30px" viewBox="0 0 33 30" version="1.1" xmlns="http://www.w3.org/2000/svg" xmlns:xlink="http://www.w3.org/1999/xlink" xmlns:sketch="http://www.bohemiancoding.com/sketch/ns">
    <!-- Generator: Sketch 3.2.2 (9983) - http://www.bohemiancoding.com/sketch -->
    <title>icn</title>
    <desc>Created with Sketch.</desc>
    <defs>
        <linearGradient x1="50%" y1="100%" x2="50%" y2="0%" id="linearGradient-1">
            <stop stop-color="#FB5250" offset="0%"></stop>
            <stop stop-color="#E14947" offset="100%"></stop>
        </linearGradient>
    </defs>
    <g id="Page-1" stroke="none" stroke-width="1" fill="none" fill-rule="evenodd" sketch:type="MSPage">
        <g id="header" sketch:type="MSArtboardGroup" transform="translate(-27.000000, -5.000000)">
            <g id="logo" sketch:type="MSLayerGroup" transform="translate(27.000000, 5.000000)">
                <g id="icn" sketch:type="MSShapeGroup">
                    <rect id="Rectangle-14" fill="#BDBDBE" x="0" y="2" width="33" height="28" rx="4"></rect>
                    <rect id="Rectangle-31" fill="#FFFFFF" x="0" y="2" width="33" height="25" rx="4"></rect>
                    <path d="M16.5,9 L21,7.33333333 L16.5,4 L12,7.33333333 L16.5,9 Z" id="Rectangle-30" fill="#FB5250"></path>
                    <path d="M15.375,8 L12,27 L21,27 L17.625,8 L15.375,8 Z" id="Rectangle-29" fill="url(#linearGradient-1)"></path>
                    <rect id="Rectangle-34" fill="#B43230" x="12" y="27" width="9" height="3"></rect>
                    <path d="M8.56349206,13 L4,2 L29,2 L24.4365079,13 L16.5,6.00000002 L8.56349206,13 Z" id="Path-15" opacity="0.1" fill="#000000"></path>
                    <path d="M7.22222222,0 L17,4.23529412 L10.2777778,9 L6,3.17647059 L7.22222222,0 Z M26.7777778,0 L17,4.23529412 L23.7222222,9 L28,3.17647059 L26.7777778,0 Z" id="Path-14" fill="#FFFFFF"></path>
                </g>
            </g>
        </g>
    </g>
</svg>