<?xml version="1.0" encoding="UTF-8" standalone="no"?>
<svg width="34px" height="26px" viewBox="0 0 34 26" version="1.1" xmlns="http://www.w3.org/2000/svg" xmlns:xlink="http://www.w3.org/1999/xlink" xmlns:sketch="http://www.bohemiancoding.com/sketch/ns">
    <!-- Generator: Sketch 3.3 (11970) - http://www.bohemiancoding.com/sketch -->
    <title>Path 3</title>
    <desc>Created with Sketch.</desc>
    <defs>
        <linearGradient x1="50%" y1="-4.93266868%" x2="50%" y2="100%" id="linearGradient-1">
            <stop stop-color="#00C1FF" offset="0%"></stop>
            <stop stop-color="#00A6DB" offset="100%"></stop>
        </linearGradient>
    </defs>
    <g id="Page-1" stroke="none" stroke-width="1" fill="none" fill-rule="evenodd" sketch:type="MSPage">
        <g id="View" sketch:type="MSArtboardGroup" transform="translate(-484.000000, -17.000000)" stroke-width="4" stroke="url(#linearGradient-1)">
            <g id="Header" sketch:type="MSLayerGroup" transform="translate(-33.000000, -41.000000)">
                <g id="Logo" transform="translate(519.000000, 60.000000)" sketch:type="MSShapeGroup">
                    <g id="Path-1-+-Path-5">
                        <path d="M15,21.8918919 L26.4,21.8918919 L29.4,21.8918919 C29.4,21.8918919 30,21.8413987 30,21.2824771 C30,13.9931374 30,0.406577527 30,0.00746496645 C30,-0.0756280449 29.4,0.562373664 29.4,0.562373664 L15,15.1883291 L0.6,0.562373664 C0.6,0.562373664 2.31729302e-11,-0.0756280449 4.18458601e-11,0.00746496645 C-6.54632122e-11,0.406577527 6.33920583e-11,13.9931374 9.8272217e-11,21.2824771 C1.01192801e-10,21.8413987 0.6,21.8918919 0.6,21.8918919 L3.6,21.8918919 L15,21.8918919 Z" id="Path-3"></path>
                    </g>
                </g>
            </g>
        </g>
    </g>
</svg>