<?xml version="1.0" encoding="UTF-8" standalone="no"?>
<svg width="27px" height="20px" viewBox="0 0 27 20" version="1.1" xmlns="http://www.w3.org/2000/svg" xmlns:xlink="http://www.w3.org/1999/xlink" xmlns:sketch="http://www.bohemiancoding.com/sketch/ns">
    <!-- Generator: Sketch 3.2.2 (9983) - http://www.bohemiancoding.com/sketch -->
    <title>Logo</title>
    <desc>Created with Sketch.</desc>
    <g id="Page-1" stroke="none" stroke-width="1" fill="none" fill-rule="evenodd" sketch:type="MSPage">
        <g id="Path-1-+-Path-5-+-Path-1-+-Path-6" sketch:type="MSLayerGroup" transform="translate(1.000000, 1.000000)" stroke-width="2" stroke="#42B0D4">
            <g id="Path-1-+-Path-5" sketch:type="MSShapeGroup">
                <path d="M25,18.0000001 L4,18.0000001 L1.5,18.0000001 C1.5,18.0000001 1,17.9585725 1,17.5000001 C1,11.5193941 1,0.372175607 1,0.0447200226 C1,-0.0234544056 1.5,0.499999987 1.5,0.499999987 L14.2,13.2000001" id="Path-3" transform="translate(13.000000, 9.019298) scale(-1, 1) translate(-13.000000, -9.019298) "></path>
                <path d="M24,18.0000001 L3,18.0000001 L0.5,18.0000001 C0.5,18.0000001 1.18120747e-10,17.9585725 1.15686927e-10,17.5000001 C8.66201277e-11,11.5193941 -2.07592643e-11,0.372175607 6.86649626e-11,0.0447200226 C5.31041877e-11,-0.0234544056 0.5,0.499999987 0.5,0.499999987 L13.2,13.2000001" id="Path-5"></path>
            </g>
        </g>
    </g>
</svg>